<svg width="43" height="49" viewBox="0 0 43 49" fill="none" xmlns="http://www.w3.org/2000/svg">
<path fill-rule="evenodd" clip-rule="evenodd" d="M42.09 27C42.0999 31.8063 40.4643 36.4713 37.4552 40.2191C34.4462 43.967 30.2448 46.5719 25.5499 47.6007C20.8549 48.6296 15.9493 48.0203 11.6486 45.8743C7.34795 43.7284 3.91143 40.1749 1.91047 35.8049C-0.0904837 31.4348 -0.5353 26.5116 0.649987 21.8536C1.83527 17.1957 4.57924 13.0839 8.42563 10.2018C12.272 7.31975 16.989 5.84112 21.7924 6.0118C26.5957 6.18248 31.1959 7.99219 34.828 11.14L38.028 7.94L40.149 10.06L36.949 13.26C40.2666 17.0684 42.0928 21.9493 42.09 27ZM21.09 9C17.5299 9 14.0498 10.0557 11.0897 12.0335C8.12962 14.0114 5.82252 16.8226 4.46014 20.1117C3.09776 23.4008 2.7413 27.02 3.43584 30.5116C4.13037 34.0033 5.8447 37.2106 8.36205 39.7279C10.8794 42.2453 14.0867 43.9596 17.5783 44.6541C21.07 45.3487 24.6892 44.9922 27.9783 43.6298C31.2673 42.2675 34.0786 39.9603 36.0564 37.0003C38.0343 34.0402 39.09 30.5601 39.09 27C39.0844 22.2278 37.1862 17.6527 33.8118 14.2782C30.4373 10.9038 25.8622 9.00556 21.09 9ZM21.09 31.5C20.0293 31.5027 19.002 31.1298 18.1901 30.4473C17.3782 29.7649 16.8342 28.817 16.6544 27.7717C16.4747 26.7264 16.6709 25.6512 17.2082 24.7368C17.7456 23.8223 18.5893 23.1277 19.59 22.776V15H22.59V22.775C23.5913 23.1262 24.4359 23.8208 24.9738 24.7354C25.5117 25.6501 25.7082 26.7258 25.5284 27.7716C25.3486 28.8174 24.8041 29.7657 23.9916 30.4482C23.1791 31.1308 22.1511 31.5034 21.09 31.5ZM21.09 25.5C20.7933 25.5 20.5033 25.588 20.2566 25.7528C20.0099 25.9176 19.8177 26.1519 19.7042 26.426C19.5906 26.7001 19.5609 27.0017 19.6188 27.2926C19.6767 27.5836 19.8195 27.8509 20.0293 28.0607C20.2391 28.2704 20.5064 28.4133 20.7973 28.4712C21.0883 28.5291 21.3899 28.4993 21.664 28.3858C21.9381 28.2723 22.1724 28.08 22.3372 27.8334C22.502 27.5867 22.59 27.2967 22.59 27C22.59 26.6022 22.4319 26.2206 22.1506 25.9393C21.8693 25.658 21.4878 25.5 21.09 25.5V25.5ZM15.09 0H27.09V3H15.09V0Z" fill="url(#paint0_linear)"/>
<defs>
<linearGradient id="paint0_linear" x1="21.045" y1="0" x2="21.045" y2="48.0886" gradientUnits="userSpaceOnUse">
<stop stop-color="#1D7AD1"/>
<stop offset="1" stop-color="#0FC9DF"/>
</linearGradient>
</defs>
</svg>
