<svg width="63" height="72" viewBox="0 0 63 72" fill="none" xmlns="http://www.w3.org/2000/svg">
<path fill-rule="evenodd" clip-rule="evenodd" d="M63 40.5C62.9993 46.5189 61.2742 52.4115 58.0289 57.4806C54.7836 62.5496 50.154 66.5827 44.688 69.1026C39.2221 71.6225 33.1486 72.5237 27.1864 71.6995C21.2242 70.8753 15.623 68.3602 11.0457 64.4518C6.46837 60.5435 3.10658 55.4056 1.35823 49.6463C-0.39012 43.887 -0.451839 37.7473 1.18038 31.9539C2.8126 26.1606 6.07042 20.9562 10.5682 16.9567C15.0661 12.9571 20.6156 10.3299 26.56 9.386C25.8706 8.39137 25.5008 7.21019 25.5 6C25.5 4.4087 26.1321 2.88258 27.2574 1.75736C28.3826 0.632141 29.9087 0 31.5 0C33.0913 0 34.6174 0.632141 35.7426 1.75736C36.8679 2.88258 37.5 4.4087 37.5 6C37.4994 7.21054 37.1297 8.39212 36.44 9.387C43.8458 10.563 50.5892 14.3423 55.4577 20.0454C60.3263 25.7486 63.0007 33.0014 63 40.5ZM31.5 3C30.9067 3 30.3266 3.17595 29.8333 3.50559C29.3399 3.83524 28.9554 4.30377 28.7284 4.85195C28.5013 5.40013 28.4419 6.00333 28.5576 6.58527C28.6734 7.16721 28.9591 7.70176 29.3787 8.12132C29.7982 8.54088 30.3328 8.8266 30.9147 8.94236C31.4967 9.05811 32.0999 8.9987 32.648 8.77164C33.1962 8.54458 33.6648 8.16006 33.9944 7.66671C34.3241 7.17336 34.5 6.59334 34.5 6C34.4976 5.20508 34.1808 4.4434 33.6187 3.8813C33.0566 3.31921 32.2949 3.00237 31.5 3ZM31.5 12C25.8632 12 20.353 13.6715 15.6662 16.8031C10.9794 19.9347 7.32653 24.3858 5.16943 29.5935C3.01234 34.8012 2.44794 40.5316 3.54762 46.0601C4.6473 51.5885 7.36166 56.6667 11.3475 60.6525C15.3333 64.6383 20.4115 67.3527 25.9399 68.4524C31.4684 69.5521 37.1988 68.9877 42.4065 66.8306C47.6142 64.6735 52.0653 61.0206 55.1969 56.3338C58.3285 51.647 60 46.1368 60 40.5C60.0016 36.7569 59.2655 33.0501 57.8338 29.5917C56.4021 26.1332 54.3028 22.9907 51.6561 20.3439C49.0093 17.6972 45.8668 15.5979 42.4083 14.1662C38.9499 12.7345 35.2431 11.9984 31.5 12V12ZM31.5 66C26.4566 66 21.5264 64.5045 17.333 61.7025C13.1395 58.9005 9.87111 54.9179 7.94107 50.2584C6.01104 45.5989 5.50605 40.4717 6.48998 35.5252C7.4739 30.5787 9.90254 26.035 13.4688 22.4688C17.035 18.9025 21.5787 16.4739 26.5252 15.49C31.4717 14.5061 36.5989 15.011 41.2584 16.9411C45.9179 18.8711 49.9005 22.1395 52.7025 26.333C55.5045 30.5264 57 35.4566 57 40.5C57.0028 43.8495 56.3451 47.1666 55.0646 50.2617C53.784 53.3567 51.9058 56.1689 49.5374 58.5374C47.1689 60.9058 44.3567 62.784 41.2617 64.0646C38.1666 65.3451 34.8495 66.0028 31.5 66V66ZM33 18.076V21H30V18.075C24.5664 18.4292 19.447 20.7474 15.5965 24.5974C11.7459 28.4474 9.42696 33.5664 9.072 39H12V42H9.072C9.42721 47.4333 11.7463 52.5519 15.5969 56.4016C19.4474 60.2512 24.5666 62.5691 30 62.923V60H33V62.924C38.4335 62.5701 43.5529 60.252 47.4034 56.4022C51.254 52.5523 53.573 47.4335 53.928 42H51V39H53.928C53.5733 33.5664 51.2544 28.4472 47.4038 24.5972C43.5531 20.7471 38.4337 18.429 33 18.075V18.076ZM44.4 53.7C44.1501 53.9127 43.8275 54.0202 43.5 54C43.24 54.0396 42.9744 53.9861 42.75 53.849L27.75 44.849C27.3741 44.6087 27.1054 44.2325 27 43.799C27 43.786 27.006 43.774 27.006 43.761L18.3 29.248C18.1371 28.9689 18.0641 28.6464 18.0909 28.3243C18.1177 28.0023 18.2431 27.6963 18.45 27.448C18.6837 27.2205 18.9813 27.0698 19.303 27.0162C19.6247 26.9626 19.9552 27.0086 20.25 27.148L35.25 36.148C35.6258 36.3884 35.8945 36.7645 36 37.198C36 37.252 35.977 37.298 35.973 37.354L44.7 51.9C44.8762 52.1856 44.9429 52.5253 44.8877 52.8563C44.8325 53.1873 44.6593 53.487 44.4 53.7V53.7ZM23.85 32.848L28.8 41.1L32.1 37.8L23.85 32.848ZM34.2 39.9L30.9 43.2L39.15 48.15L34.2 39.9Z" fill="url(#paint0_linear)"/>
<defs>
<linearGradient id="paint0_linear" x1="31.5" y1="0" x2="31.5" y2="71.9962" gradientUnits="userSpaceOnUse">
<stop stop-color="#1D7AD1"/>
<stop offset="1" stop-color="#0FC9DF"/>
</linearGradient>
</defs>
</svg>
