<svg width="84" height="90" viewBox="0 0 84 90" fill="none" xmlns="http://www.w3.org/2000/svg">
<path fill-rule="evenodd" clip-rule="evenodd" d="M56.3323 58.3156C62.426 55.098 67.2708 49.9227 70.093 43.6158C72.9153 37.3089 73.5523 30.2341 71.9025 23.521C70.2526 16.8079 66.4109 10.8435 60.9908 6.58007C55.5706 2.31664 48.8846 0 42 0C35.1154 0 28.4294 2.31664 23.0092 6.58007C17.5891 10.8435 13.7474 16.8079 12.0975 23.521C10.4476 30.2341 11.0847 37.3089 13.907 43.6158C16.7292 49.9227 21.574 55.098 27.6677 58.3156C11.5453 63.0214 0 75.4064 0 90H5.6C5.6 74.5065 21.924 61.8778 42 61.8778C62.076 61.8778 78.4 74.5065 78.4 90H84C84 75.4064 72.4547 63.0214 56.3323 58.3156ZM16.8 30.9433C16.8 25.9375 18.278 21.0441 21.047 16.8818C23.816 12.7196 27.7517 9.47559 32.3564 7.55993C36.9611 5.64428 42.028 5.14306 46.9163 6.11965C51.8046 7.09624 56.2948 9.50679 59.8191 13.0465C63.3434 16.5861 65.7434 21.0959 66.7158 26.0056C67.6881 30.9152 67.1891 36.0042 65.2818 40.629C63.3744 45.2538 60.1445 49.2067 56.0004 51.9878C51.8563 54.7689 46.9841 56.2533 42 56.2533C35.319 56.2454 28.9138 53.5763 24.1896 48.8314C19.4654 44.0866 16.8079 37.6535 16.8 30.9433V30.9433Z" fill="url(#paint0_linear)"/>
<defs>
<linearGradient id="paint0_linear" x1="42" y1="0" x2="42" y2="90" gradientUnits="userSpaceOnUse">
<stop stop-color="#1D7AD1"/>
<stop offset="1" stop-color="#0FC9DF"/>
</linearGradient>
</defs>
</svg>
