<svg width="50" height="50" viewBox="0 0 50 50" fill="none" xmlns="http://www.w3.org/2000/svg">
<path fill-rule="evenodd" clip-rule="evenodd" d="M50 32.811V35.936H42.187V42.186H35.937V50H32.812V42.186H29.688V50H26.562V42.186H23.437V50H20.313V42.186H17.187V50H14.062V42.186H7.812V35.936H0V32.811H7.812V29.686H0V26.562H7.812V23.436H0V20.31H7.812V17.187H0V14.061H7.812V7.812H14.062V0H17.187V7.812H20.312V0H23.437V7.812H26.562V0H29.687V7.812H32.812V0H35.937V7.812H42.187V14.061H50V17.187H42.187V20.31H50V23.436H42.187V26.562H50V29.687H42.187V32.811H50ZM39.063 10.935H10.938V39.061H39.063V10.935ZM34.375 34.374H15.625V15.622H34.375V34.374ZM31.25 18.748H18.75V31.248H31.25V18.748Z" fill="url(#paint0_linear)"/>
<defs>
<linearGradient id="paint0_linear" x1="25" y1="0" x2="25" y2="50" gradientUnits="userSpaceOnUse">
<stop stop-color="#1D7AD1"/>
<stop offset="1" stop-color="#0FC9DF"/>
</linearGradient>
</defs>
</svg>
