<svg width="65" height="65" viewBox="0 0 65 65" fill="none" xmlns="http://www.w3.org/2000/svg">
<path fill-rule="evenodd" clip-rule="evenodd" d="M64.136 42.9046L57.785 49.2556C57.754 49.2866 57.718 49.2976 57.685 49.3246L59.485 56.0396L50.911 64.6126L39.045 36.1536C34.765 40.4026 30.1917 44.3456 25.359 47.9536L26.321 56.5376C26.3447 56.9993 26.1937 57.4531 25.898 57.8086L21.664 62.0436C21.3082 62.3386 20.8546 62.4892 20.393 62.4656C20.1063 62.3518 19.8516 62.1699 19.651 61.9356C19.4974 61.7921 19.3869 61.6085 19.332 61.4056L15.297 52.2866L14.236 50.3796L12.116 49.3166L3.106 45.3886C2.88641 45.2974 2.69338 45.1522 2.5448 44.9666C2.39621 44.781 2.29688 44.5608 2.256 44.3266C2.19294 44.0638 2.19865 43.7892 2.27256 43.5293C2.34648 43.2694 2.48611 43.0329 2.678 42.8426L6.912 38.6076C7.06974 38.4339 7.26956 38.3039 7.49219 38.23C7.71482 38.1561 7.95274 38.1408 8.183 38.1856L16.767 39.1476C19.916 35.0426 24.017 30.3326 28.596 25.4886L0 13.7026L8.574 5.12658L15.294 6.91758C15.32 6.88858 15.329 6.85558 15.357 6.82758L21.708 0.476577C21.8409 0.326736 22.004 0.20678 22.1866 0.124629C22.3693 0.0424777 22.5672 0 22.7675 0C22.9678 0 23.1657 0.0424777 23.3484 0.124629C23.531 0.20678 23.6941 0.326736 23.827 0.476577C23.977 0.609349 24.0971 0.772452 24.1793 0.955097C24.2616 1.13774 24.3041 1.33577 24.3041 1.53608C24.3041 1.73639 24.2616 1.93441 24.1793 2.11706C24.0971 2.2997 23.977 2.4628 23.827 2.59558L18.62 7.80258L25.32 9.58858L31.246 3.66258C31.3789 3.51274 31.542 3.39278 31.7246 3.31063C31.9073 3.22848 32.1052 3.186 32.3055 3.186C32.5058 3.186 32.7037 3.22848 32.8864 3.31063C33.069 3.39278 33.2321 3.51274 33.365 3.66258C33.5148 3.79544 33.6348 3.95857 33.7169 4.1412C33.7991 4.32384 33.8416 4.52182 33.8416 4.72208C33.8416 4.92234 33.7991 5.12032 33.7169 5.30295C33.6348 5.48559 33.5148 5.64872 33.365 5.78158L28.665 10.4816L40.571 13.6556C42.081 12.1876 43.92 10.5266 45.128 9.50458C47.7383 7.4422 50.5397 5.63398 53.494 4.10458C59.425 1.14458 61.121 1.78058 61.969 2.63058C64.939 5.59958 56.58 17.7766 54.992 19.5756C54.15 20.6266 52.766 22.0366 50.906 24.0486L54.106 35.9666L58.829 31.2436C59.1104 30.9623 59.492 30.8044 59.8899 30.8044C60.2877 30.8045 60.6692 30.9627 60.9505 31.2441C61.2318 31.5255 61.3897 31.9071 61.3896 32.3049C61.3895 32.7028 61.2314 33.0843 60.95 33.3656L55.003 39.3126L56.798 46.0036L62.018 40.7836C62.303 40.5216 62.6782 40.38 63.0652 40.3883C63.4522 40.3966 63.821 40.5542 64.0945 40.8281C64.368 41.102 64.525 41.471 64.5327 41.858C64.5405 42.245 64.3983 42.62 64.136 42.9046V42.9046ZM9.425 8.52058L5.297 12.6496L30.736 23.2686L31.188 22.8176L31.266 22.7396C32.706 21.2986 35.301 18.7066 37.966 16.1556L9.425 8.52058ZM52.666 17.4636C55.418 14.4986 59.331 7.40458 59.647 4.96358C57.9454 5.37626 56.3068 6.01529 54.775 6.86358C51.9902 8.17326 49.3909 9.84579 47.045 11.8376C46.286 12.4576 45.277 13.4166 44.04 14.5786L44.081 14.5896L42.176 16.4956C38.894 19.3536 32.754 25.4956 32.649 25.5956L32.331 25.9136L31.696 26.7606L31.556 26.7026C26.9423 31.3477 22.6734 36.3229 18.783 41.5886C18.6443 41.8166 18.4339 41.9922 18.1847 42.0879C17.9356 42.1836 17.6617 42.1941 17.406 42.1176L8.506 41.2616L6.281 43.4836L13.489 46.6686L16.036 47.9436C16.1964 47.9673 16.3449 48.042 16.4595 48.1568C16.5741 48.2715 16.6486 48.4201 16.672 48.5806L17.945 51.1266L21.131 58.3346L23.354 56.1116L22.392 47.3116C22.3652 47.0567 22.399 46.799 22.4908 46.5597C22.5826 46.3204 22.7296 46.1062 22.92 45.9346C28.4011 41.8091 33.5673 37.2813 38.376 32.3886L38.799 31.9666L39.646 31.1196C41.552 29.2136 45.046 25.7196 48.008 22.5456C50.236 20.1096 51.819 18.5266 52.666 17.4636ZM48.353 26.7636C45.898 29.3246 43.386 31.8376 41.874 33.3506L41.345 33.8796L51.966 59.3186L56.094 55.1886L48.353 26.7636Z" fill="url(#paint0_linear)"/>
<defs>
<linearGradient id="paint0_linear" x1="32.2665" y1="0" x2="32.2665" y2="64.6126" gradientUnits="userSpaceOnUse">
<stop stop-color="#1D7AD1"/>
<stop offset="1" stop-color="#0FC9DF"/>
</linearGradient>
</defs>
</svg>
