<svg width="42" height="48" viewBox="0 0 42 48" fill="none" xmlns="http://www.w3.org/2000/svg">
<path fill-rule="evenodd" clip-rule="evenodd" d="M21 0C21 0 14.636 7.5 0 7.5V22.414C0.0401455 26.6442 1.12011 30.7996 3.14474 34.514C5.16937 38.2285 8.07651 41.3879 11.61 43.714C14.467 45.6778 17.6446 47.1282 21 48C24.354 47.1279 27.5305 45.6783 30.387 43.716C33.9213 41.3901 36.8292 38.2305 38.8544 34.5156C40.8796 30.8008 41.9599 26.6448 42 22.414V7.5C27.365 7.5 21 0 21 0ZM39 22.414C39 22.693 38.984 22.498 38.974 23.999H22.5V5.108C27.438 8.29416 33.13 10.1197 39 10.4V22.414ZM3 10.4C8.8694 10.1186 14.5608 8.29429 19.5 5.111V24H3.026C3.016 22.5 3 22.694 3 22.414V10.4ZM3.341 27H19.5V44.387C17.3199 43.7388 15.2352 42.805 13.3 41.61C8.39371 38.0353 4.87508 32.8734 3.341 27V27ZM28.7 41.611C26.7648 42.8059 24.68 43.7397 22.5 44.388V27H38.659C37.1247 32.8736 33.6061 38.0357 28.7 41.611V41.611Z" fill="url(#paint0_linear)"/>
<defs>
<linearGradient id="paint0_linear" x1="21" y1="0" x2="21" y2="48" gradientUnits="userSpaceOnUse">
<stop stop-color="#1D7AD1"/>
<stop offset="1" stop-color="#0FC9DF"/>
</linearGradient>
</defs>
</svg>
