<svg width="49" height="72" viewBox="0 0 49 72" fill="none" xmlns="http://www.w3.org/2000/svg">
<path fill-rule="evenodd" clip-rule="evenodd" d="M24.0049 72C19.3895 72.0121 14.869 70.6899 10.9875 68.1926C7.10608 65.6953 4.0292 62.1294 2.12729 57.924C0.225379 53.7187 -0.420478 49.0533 0.26747 44.4894C0.955418 39.9256 2.94785 35.6578 6.00489 32.2V18C6.00489 15.6362 6.47047 13.2956 7.37505 11.1117C8.27964 8.92784 9.60551 6.94353 11.277 5.27208C12.9484 3.60062 14.9327 2.27475 17.1166 1.37017C19.3004 0.465584 21.6411 0 24.0049 0C26.3687 0 28.7093 0.465584 30.8932 1.37017C33.077 2.27475 35.0614 3.60062 36.7328 5.27208C38.4043 6.94353 39.7301 8.92784 40.6347 11.1117C41.5393 13.2956 42.0049 15.6362 42.0049 18V32.2C45.0619 35.6578 47.0544 39.9256 47.7423 44.4894C48.4302 49.0533 47.7844 53.7187 45.8825 57.924C43.9806 62.1294 40.9037 65.6953 37.0223 68.1926C33.1408 70.6899 28.6203 72.0121 24.0049 72V72ZM39.0049 18C39.0049 14.0218 37.4245 10.2064 34.6115 7.3934C31.7984 4.58035 27.9831 3 24.0049 3C20.0266 3 16.2113 4.58035 13.3983 7.3934C10.5852 10.2064 9.00489 14.0218 9.00489 18V29.315C9.95197 28.5567 10.9548 27.8707 12.0049 27.263V18C12.0049 14.8174 13.2692 11.7652 15.5196 9.51472C17.77 7.26428 20.8223 6 24.0049 6C27.1875 6 30.2397 7.26428 32.4902 9.51472C34.7406 11.7652 36.0049 14.8174 36.0049 18V27.263C37.055 27.8707 38.0578 28.5566 39.0049 29.315V18ZM15.0049 18V25.776C20.7711 23.4073 27.2387 23.4073 33.0049 25.776V18C33.0049 16.8181 32.7721 15.6478 32.3198 14.5558C31.8675 13.4639 31.2046 12.4718 30.3688 11.636C29.5331 10.8003 28.541 10.1374 27.449 9.68508C26.3571 9.23279 25.1868 9 24.0049 9C22.823 9 21.6527 9.23279 20.5607 9.68508C19.4688 10.1374 18.4767 10.8003 17.6409 11.636C16.8052 12.4718 16.1423 13.4639 15.69 14.5558C15.2377 15.6478 15.0049 16.8181 15.0049 18V18ZM24.0049 27C19.8515 27 15.7913 28.2316 12.3379 30.5391C8.88448 32.8466 6.19286 36.1264 4.60342 39.9636C3.01398 43.8009 2.59811 48.0233 3.40839 52.0969C4.21868 56.1705 6.21874 59.9123 9.15564 62.8492C12.0925 65.7861 15.8344 67.7862 19.908 68.5965C23.9816 69.4068 28.204 68.9909 32.0412 67.4015C35.8785 65.812 39.1582 63.1204 41.4657 59.667C43.7733 56.2135 45.0049 52.1534 45.0049 48C44.9888 42.4354 42.7711 37.1033 38.8363 33.1685C34.9016 29.2338 29.5695 27.0161 24.0049 27V27ZM25.5049 56.784V63C25.5049 63.3978 25.3469 63.7794 25.0655 64.0607C24.7842 64.342 24.4027 64.5 24.0049 64.5C23.6071 64.5 23.2255 64.342 22.9442 64.0607C22.6629 63.7794 22.5049 63.3978 22.5049 63V56.784C21.0909 56.4189 19.8586 55.5507 19.039 54.342C18.2194 53.1333 17.8687 51.6672 18.0527 50.2185C18.2367 48.7698 18.9428 47.4379 20.0385 46.4725C21.1343 45.5071 22.5445 44.9745 24.0049 44.9745C25.4652 44.9745 26.8755 45.5071 27.9712 46.4725C29.067 47.4379 29.7731 48.7698 29.9571 50.2185C30.1411 51.6672 29.7904 53.1333 28.9708 54.342C28.1512 55.5507 26.9189 56.4189 25.5049 56.784V56.784ZM24.0049 48C23.4115 48 22.8315 48.1759 22.3382 48.5056C21.8448 48.8352 21.4603 49.3038 21.2332 49.852C21.0062 50.4001 20.9468 51.0033 21.0625 51.5853C21.1783 52.1672 21.464 52.7018 21.8836 53.1213C22.3031 53.5409 22.8377 53.8266 23.4196 53.9424C24.0016 54.0581 24.6048 53.9987 25.1529 53.7716C25.7011 53.5446 26.1697 53.1601 26.4993 52.6667C26.8289 52.1734 27.0049 51.5933 27.0049 51C27.0025 50.2051 26.6857 49.4434 26.1236 48.8813C25.5615 48.3192 24.7998 48.0024 24.0049 48V48Z" fill="url(#paint0_linear)"/>
<defs>
<linearGradient id="paint0_linear" x1="-69" y1="-15" x2="-41" y2="113" gradientUnits="userSpaceOnUse">
<stop stop-color="#1D7AD1"/>
<stop offset="1" stop-color="#0FC9DF"/>
</linearGradient>
</defs>
</svg>
